<?xml version="1.0" encoding="UTF-8"?>
<svg width="95px" height="58px" viewBox="0 0 95 58" version="1.1" xmlns="http://www.w3.org/2000/svg" xmlns:xlink="http://www.w3.org/1999/xlink">
    <!-- Generator: Sketch 53.2 (72643) - https://sketchapp.com -->
    <title>logo bvl</title>
    <desc>Created with Sketch.</desc>
    <defs>
        <path d="M51.5565362,0.0135878146 L0.0496925792,6.33784202 L1.43147627,17.5920465 L1.43545556,17.5860291 L7.33974923,17.521487 L8.75928764,17.4893615 C9.50127937,17.4571389 10.2434652,17.4571389 10.9853599,17.4571389 L10.9853599,17.4571389 C15.2442663,17.4571389 16.6961243,17.9409622 17.9221334,18.9733449 L17.9221334,18.9733449 C18.2129126,19.2157904 18.4672959,19.4884202 18.6851862,19.7848286 L18.6851862,19.7848286 C18.4955391,19.1487248 18.3051156,18.512718 18.1130422,17.8765171 L18.1130422,17.8765171 L18.2099039,17.6828908 C19.4733765,17.6506682 20.7318023,17.6183487 21.9577143,17.5860291 L21.9577143,17.5860291 C23.0547362,17.521487 24.1193415,17.4571389 25.2163634,17.3924998 L25.2163634,17.3924998 L25.4423094,17.521487 C26.0229943,20.5220646 26.6036793,23.5547678 27.2489064,26.5552484 L27.2489064,26.5552484 C27.862105,29.2333096 28.4750125,31.9110797 29.1202396,34.5566272 L29.1202396,34.5566272 C29.4750757,32.9434624 29.7977863,31.3302977 30.1527194,29.6848133 L30.1527194,29.6848133 C31.5722578,23.0708475 31.7334675,22.3288558 32.5725151,17.7796554 L32.5725151,17.7796554 L32.7659473,17.5860291 C36.8596647,17.4990671 40.8507941,17.5273103 44.9444144,17.4893615 L44.9444144,17.4893615 L45.1701662,17.6183487 C45.1379437,18.4249796 45.0734016,19.263736 45.0411791,20.0703669 L45.0411791,20.0703669 C44.9444144,22.7804565 44.9120948,32.2014707 44.8798723,35.3309385 L44.8798723,35.3309385 C48.8804161,35.298716 49.6225049,35.2663964 52.881154,35.1373122 L52.881154,35.1373122 L53.0424608,35.3309385 L52.7198472,40.1704328 L52.5586375,40.3641562 C45.6542807,40.29942 43.879615,40.3319337 38.1045997,40.4662589 L38.1045997,40.4662589 L37.9432929,40.2672945 C37.9756125,38.1377928 37.9756125,37.3635785 37.9756125,36.1375694 L37.9756125,36.1375694 C37.9756125,33.3952573 37.9432929,30.652751 37.9108763,27.9103418 L37.9108763,27.9103418 C37.9108763,24.3848862 37.9107792,22.6380756 37.8932121,21.1889352 L37.8932121,21.1889352 C34.7915993,31.3559204 34.509264,32.3509367 32.4112083,40.1704328 L32.4112083,40.1704328 L32.1530398,40.3641562 C29.0233779,40.3641562 27.9910922,40.3641562 24.8616244,40.4662589 L24.8616244,40.4662589 L24.667901,40.29942 C24.151564,38.4281838 23.6676437,36.5570447 23.1192784,34.6533918 L23.1192784,34.6533918 C22.5062738,32.5563068 21.8286301,30.3947766 21.2157226,28.2975945 L21.2157226,28.2975945 C20.6746364,26.5513662 20.1708196,24.8237726 19.6618589,23.0865705 L19.6618589,23.0865705 C19.6491446,23.5479739 19.5717911,24.3246146 19.1480454,25.2002522 L19.1480454,25.2002522 C18.3416086,26.8456395 17.0831829,27.4908665 16.2121069,27.9426614 L16.2121069,27.9426614 C17.3413514,28.1685103 18.8577515,28.4589013 19.8902313,29.9429818 L19.8902313,29.9429818 C20.7289876,31.1689909 20.8580719,32.3627775 20.8580719,33.2983956 L20.8580719,33.2983956 C20.8580719,33.9436226 20.8257523,35.8148588 19.3739914,37.4925657 L19.3739914,37.4925657 C17.0831829,40.1704328 13.5664623,40.2672945 8.88827482,40.3641562 L8.88827482,40.3641562 L4.22755735,40.3641562 L6.37394678,57.8452679 L6.37472323,57.8452679 L57.8814698,51.5209167 L51.5572156,0.0135878146 L51.5565362,0.0135878146 Z M8.27536733,21.6513091 L8.27536733,26.5230259 C8.95281694,26.5230259 9.50127937,26.5230259 10.0497418,26.4908034 L10.0497418,26.4908034 C12.1147014,26.3294966 12.8244706,25.1680296 12.8244706,24.0065626 L12.8244706,24.0065626 C12.8244706,23.10307 12.4373149,22.5869272 12.2115631,22.3610783 L12.2115631,22.3610783 C11.6179697,21.7417651 10.6941924,21.6384007 9.35773382,21.6384007 L9.35773382,21.6384007 C9.02318241,21.6384007 8.66291121,21.6449034 8.27536733,21.6513091 L8.27536733,21.6513091 Z M8.21082521,30.9753645 L8.21082521,36.1375694 C9.6626832,36.169792 10.8562757,36.169792 11.7920879,35.7505108 L11.7920879,35.7505108 C12.9212353,35.2342709 13.372933,34.2985558 13.372933,33.3629377 L13.372933,33.3629377 C13.372933,31.523827 11.9856172,31.1689909 11.566239,31.0722262 L11.566239,31.0722262 C11.2004356,30.9861377 10.9494492,30.9575063 10.0767233,30.9575063 L10.0767233,30.9575063 C9.64065153,30.9575063 9.04929042,30.9645913 8.21082521,30.9753645 L8.21082521,30.9753645 Z" id="path-1"></path>
        <linearGradient x1="83.5536698%" y1="19.787902%" x2="16.4396738%" y2="80.2179186%" id="linearGradient-3">
            <stop stop-color="#DD060E" offset="0%"></stop>
            <stop stop-color="#B40F24" offset="100%"></stop>
        </linearGradient>
    </defs>
    <g id="Symbols" stroke="none" stroke-width="1" fill="none" fill-rule="evenodd">
        <g id="logo-bvl">
            <path d="M40.4293874,40.4476533 L45.0901049,40.4476533 C49.7682924,40.3507916 53.28511,40.254027 55.5758214,37.5761599 C57.0275824,35.898453 57.059902,34.0272168 57.059902,33.3818927 C57.059902,32.4463716 56.9308177,31.2525851 56.0919643,30.026576 C55.0595815,28.5423984 53.5431814,28.2521044 52.413937,28.0262555 C53.28511,27.5744607 54.5433416,26.9292336 55.3498755,25.2838463 C55.7736212,24.4082087 55.8509747,23.6315681 55.863689,23.1701647 C56.3726497,24.9073668 56.8763694,26.6349604 57.4176497,28.3810916 C58.0304602,30.4782738 58.7081039,32.6399009 59.3211084,34.736986 C59.8694738,36.6405418 60.3534912,38.511778 60.8697311,40.3830142 L61.0633574,40.5498531 C64.1929223,40.4476533 65.225208,40.4476533 68.3548699,40.4476533 L68.6129413,40.254027 C70.710997,32.4345308 70.9934294,31.4396116 74.0950422,21.2725293 C74.1125123,22.7216698 74.1127064,24.4684804 74.1127064,27.993936 C74.145026,30.7363452 74.1773455,33.4787544 74.1773455,36.2211636 C74.1773455,37.4471727 74.1773455,38.221484 74.145026,40.3507916 L74.3063327,40.5498531 C80.0814451,40.4154308 81.8560137,40.3830142 88.7603705,40.4476533 L88.9216773,40.254027 L89.2442908,35.4145327 L89.0829841,35.2209063 C85.824335,35.3499906 85.0823432,35.3823102 81.0817024,35.4145327 C81.1139249,32.2849678 81.1461474,22.8640507 81.2430091,20.153961 C81.2752317,19.3473301 81.3397738,18.5085737 81.3719963,17.7019428 L81.1461474,17.5728586 C77.0526242,17.6108074 73.0614948,17.5826612 68.9677774,17.6697203 L68.7743452,17.8632496 C67.9353947,22.4123529 67.7740879,23.1544417 66.3545495,29.7684075 C65.9995193,31.4138918 65.6769058,33.0270566 65.3220697,34.6402214 C64.6768426,31.9945768 64.0638381,29.3168068 63.4508335,26.6388426 C62.8055094,23.638362 62.2248244,20.6056588 61.6440424,17.6050811 L61.4181935,17.4760939 C60.3212686,17.5406361 59.2565663,17.6050811 58.1595444,17.6697203 C56.9336323,17.7019428 55.6752066,17.7341654 54.411734,17.766485 L54.3148722,17.9600143 C54.5068487,18.5962151 54.6972722,19.2322219 54.8870163,19.8684228 C54.669126,19.5719173 54.4147427,19.2992875 54.1239635,19.0569391 C52.8978573,18.0245564 51.4459993,17.5406361 47.18719,17.5406361 C46.4452953,17.5406361 45.7031095,17.5406361 44.9610207,17.5728586 L43.5415793,17.6050811 L37.6372856,17.6697203 L37.6333064,17.6755437 L40.4293874,40.4476533 Z" id="Fill-1" stroke="#FFFFFF" stroke-width="0.2" fill="#FFFFFF" fill-rule="nonzero"></path>
            <g id="Group-5" transform="translate(36.201820, 0.083565)">
                <g id="Fill-3-Clipped">
                    <mask id="mask-2" fill="white">
                        <use xlink:href="#path-1"></use>
                    </mask>
                    <g id="path-1"></g>
                    <path d="M51.5565362,0.0135878146 L0.0496925792,6.33784202 L1.43147627,17.5920465 L1.43545556,17.5860291 L7.33974923,17.521487 L8.75928764,17.4893615 C9.50127937,17.4571389 10.2434652,17.4571389 10.9853599,17.4571389 L10.9853599,17.4571389 C15.2442663,17.4571389 16.6961243,17.9409622 17.9221334,18.9733449 L17.9221334,18.9733449 C18.2129126,19.2157904 18.4672959,19.4884202 18.6851862,19.7848286 L18.6851862,19.7848286 C18.4955391,19.1487248 18.3051156,18.512718 18.1130422,17.8765171 L18.1130422,17.8765171 L18.2099039,17.6828908 C19.4733765,17.6506682 20.7318023,17.6183487 21.9577143,17.5860291 L21.9577143,17.5860291 C23.0547362,17.521487 24.1193415,17.4571389 25.2163634,17.3924998 L25.2163634,17.3924998 L25.4423094,17.521487 C26.0229943,20.5220646 26.6036793,23.5547678 27.2489064,26.5552484 L27.2489064,26.5552484 C27.862105,29.2333096 28.4750125,31.9110797 29.1202396,34.5566272 L29.1202396,34.5566272 C29.4750757,32.9434624 29.7977863,31.3302977 30.1527194,29.6848133 L30.1527194,29.6848133 C31.5722578,23.0708475 31.7334675,22.3288558 32.5725151,17.7796554 L32.5725151,17.7796554 L32.7659473,17.5860291 C36.8596647,17.4990671 40.8507941,17.5273103 44.9444144,17.4893615 L44.9444144,17.4893615 L45.1701662,17.6183487 C45.1379437,18.4249796 45.0734016,19.263736 45.0411791,20.0703669 L45.0411791,20.0703669 C44.9444144,22.7804565 44.9120948,32.2014707 44.8798723,35.3309385 L44.8798723,35.3309385 C48.8804161,35.298716 49.6225049,35.2663964 52.881154,35.1373122 L52.881154,35.1373122 L53.0424608,35.3309385 L52.7198472,40.1704328 L52.5586375,40.3641562 C45.6542807,40.29942 43.879615,40.3319337 38.1045997,40.4662589 L38.1045997,40.4662589 L37.9432929,40.2672945 C37.9756125,38.1377928 37.9756125,37.3635785 37.9756125,36.1375694 L37.9756125,36.1375694 C37.9756125,33.3952573 37.9432929,30.652751 37.9108763,27.9103418 L37.9108763,27.9103418 C37.9108763,24.3848862 37.9107792,22.6380756 37.8932121,21.1889352 L37.8932121,21.1889352 C34.7915993,31.3559204 34.509264,32.3509367 32.4112083,40.1704328 L32.4112083,40.1704328 L32.1530398,40.3641562 C29.0233779,40.3641562 27.9910922,40.3641562 24.8616244,40.4662589 L24.8616244,40.4662589 L24.667901,40.29942 C24.151564,38.4281838 23.6676437,36.5570447 23.1192784,34.6533918 L23.1192784,34.6533918 C22.5062738,32.5563068 21.8286301,30.3947766 21.2157226,28.2975945 L21.2157226,28.2975945 C20.6746364,26.5513662 20.1708196,24.8237726 19.6618589,23.0865705 L19.6618589,23.0865705 C19.6491446,23.5479739 19.5717911,24.3246146 19.1480454,25.2002522 L19.1480454,25.2002522 C18.3416086,26.8456395 17.0831829,27.4908665 16.2121069,27.9426614 L16.2121069,27.9426614 C17.3413514,28.1685103 18.8577515,28.4589013 19.8902313,29.9429818 L19.8902313,29.9429818 C20.7289876,31.1689909 20.8580719,32.3627775 20.8580719,33.2983956 L20.8580719,33.2983956 C20.8580719,33.9436226 20.8257523,35.8148588 19.3739914,37.4925657 L19.3739914,37.4925657 C17.0831829,40.1704328 13.5664623,40.2672945 8.88827482,40.3641562 L8.88827482,40.3641562 L4.22755735,40.3641562 L6.37394678,57.8452679 L6.37472323,57.8452679 L57.8814698,51.5209167 L51.5572156,0.0135878146 L51.5565362,0.0135878146 Z M8.27536733,21.6513091 L8.27536733,26.5230259 C8.95281694,26.5230259 9.50127937,26.5230259 10.0497418,26.4908034 L10.0497418,26.4908034 C12.1147014,26.3294966 12.8244706,25.1680296 12.8244706,24.0065626 L12.8244706,24.0065626 C12.8244706,23.10307 12.4373149,22.5869272 12.2115631,22.3610783 L12.2115631,22.3610783 C11.6179697,21.7417651 10.6941924,21.6384007 9.35773382,21.6384007 L9.35773382,21.6384007 C9.02318241,21.6384007 8.66291121,21.6449034 8.27536733,21.6513091 L8.27536733,21.6513091 Z M8.21082521,30.9753645 L8.21082521,36.1375694 C9.6626832,36.169792 10.8562757,36.169792 11.7920879,35.7505108 L11.7920879,35.7505108 C12.9212353,35.2342709 13.372933,34.2985558 13.372933,33.3629377 L13.372933,33.3629377 C13.372933,31.523827 11.9856172,31.1689909 11.566239,31.0722262 L11.566239,31.0722262 C11.2004356,30.9861377 10.9494492,30.9575063 10.0767233,30.9575063 L10.0767233,30.9575063 C9.64065153,30.9575063 9.04929042,30.9645913 8.21082521,30.9753645 L8.21082521,30.9753645 Z" id="Fill-3" fill="url(#linearGradient-3)" fill-rule="nonzero" mask="url(#mask-2)"></path>
                </g>
            </g>
            <g id="Group-12" transform="translate(0.000000, 17.456557)" fill="#000000" fill-rule="nonzero">
                <path d="M37.5954352,6.1107217 C36.3608852,6.15847316 36.0642826,6.15847316 34.6191214,6.15847316 C34.60961,5.2493513 34.6000014,4.98138019 34.6191214,3.87125574 C35.920737,3.87125574 36.1599796,3.87125574 37.2701041,3.89998426 L37.3275611,3.83301574 C37.3370726,3.52670758 37.3370726,3.4311076 37.3753126,3.09607091 L37.3275611,3.0291024 C36.1599796,3.04822239 35.7963115,3.05773386 34.6191214,3.04822239 C34.6191214,2.16782906 34.6191214,1.89024942 34.64785,1.00985609 C35.86328,1.01936756 36.2747966,1.01936756 37.5093467,1.05770461 L37.5668037,0.990639036 C37.5858266,0.646187935 37.6050437,0.531273846 37.6337722,0.244182734 L37.5763152,0.177214219 C35.8154315,0.196334216 35.4421548,0.196334216 33.5569426,0.205942742 L33.4994855,0.272911257 C33.566454,1.37342718 33.566454,2.29215756 33.566454,3.89998426 C33.566454,5.65125945 33.5377255,6.16808168 33.508997,6.92404946 L33.5569426,6.99266792 C35.3751863,6.97354792 35.6718859,6.96238651 37.5380752,6.96238651 L37.6050437,6.89532093 C37.6240666,6.56998983 37.6240666,6.50302132 37.6528922,6.17759316 L37.5954352,6.1107217 Z M28.7564647,6.17759316 C28.7373447,5.30680835 28.7277362,5.09619722 28.7277362,3.34482497 C28.7277362,1.90936942 28.7373447,1.56491832 28.7564647,0.962007569 C29.0818929,0.952399043 29.349864,0.942790517 29.6848036,0.942790517 C30.0579832,0.942790517 30.8331681,0.942790517 31.3978388,1.42137276 C32.0964466,2.02428351 32.0964466,3.01949387 32.0964466,3.3353135 C32.0964466,3.86164721 32.0294781,4.33062093 31.8668125,4.75174612 C31.2829247,6.2159302 30.0389603,6.19681021 28.7564647,6.17759316 L28.7564647,6.17759316 Z M28.3354366,6.98315645 C29.6082266,6.98315645 29.7517721,6.98315645 30.1250488,6.94326651 C31.1011392,6.84756947 32.3644177,6.52214131 32.957817,4.97186872 C33.149114,4.47416648 33.2161796,3.94773572 33.2161796,3.41189055 C33.2161796,3.0099824 33.2161796,1.45961275 31.9624125,0.655699406 C31.1681077,0.148485697 30.1824088,0.158094223 29.0626758,0.177214219 L27.6559488,0.205942742 L27.5984917,0.272911257 C27.6463403,0.990639036 27.6845802,1.77543239 27.6845802,4.44543796 C27.6845802,5.43123391 27.6750688,6.14896169 27.6463403,6.92404946 L27.6941888,6.99266792 L28.3354366,6.98315645 Z M21.9178147,0.894941999 L22.836545,4.12961832 C22.5015084,4.12961832 22.1570573,4.13932391 21.8317262,4.13932391 C21.525418,4.13932391 21.2192069,4.12961832 20.9128987,4.12961832 L21.9178147,0.894941999 Z M22.759968,0.234671264 L22.6929024,0.167605693 C22.0804802,0.196334216 21.9943917,0.196334216 21.3244154,0.205942742 L21.2478383,0.272911257 C20.9703558,1.19154458 20.7598417,1.81367238 20.1855624,3.50768464 C19.8411113,4.541135 19.4869546,5.57147957 19.1233835,6.60027125 C19.0850465,6.69606534 19.0468065,6.79011243 19.0165251,6.89532093 L19.056318,6.96238651 C19.5348031,6.93365798 19.6305002,6.93365798 20.0421139,6.93365798 L20.1089854,6.86668947 C20.3387165,6.01978039 20.3961735,5.79004927 20.6737532,4.89529168 C21.0564443,4.89529168 21.4966895,4.88568315 21.9178147,4.88568315 C22.3006028,4.88568315 22.6738795,4.89529168 23.0565706,4.89529168 C23.3055188,5.75656501 23.3819987,6.01502466 23.6213384,6.91453799 L23.6882099,6.98315645 C24.0902151,6.96238651 24.3007291,6.95287503 24.7983343,6.94326651 L24.8366714,6.86668947 C24.5494832,5.94795909 24.0710951,4.47416648 23.7743954,3.5554361 C23.4873043,2.64631425 23.1236362,1.45961275 22.8078165,0.406945342 L22.759968,0.234671264 Z M17.0409539,2.92379683 L17.5194391,3.1343109 C18.2179498,3.44061907 19.1463858,3.84252721 19.1463858,5.06756576 C19.1463858,6.13935316 18.3520809,7.10748495 16.6867972,7.10748495 C15.6723698,7.10748495 15.0216105,6.79972095 14.7918794,6.68490392 L14.7537365,6.6179354 C14.7918794,6.28289872 14.8014879,6.10101611 14.8302164,5.73734796 L14.9259135,5.69910797 C15.1651561,5.86187058 15.7202183,6.26377872 16.6102202,6.26377872 C17.5960161,6.26377872 18.0074357,5.75656501 18.0074357,5.18238279 C18.0074357,4.51250353 17.4523735,4.25414094 16.8303428,4.01480129 L16.3518576,3.80428722 C15.6723698,3.48846759 14.7632479,3.07695091 14.7632479,1.90936942 C14.7632479,1.55521273 14.858945,1.19154458 15.0599476,0.904550525 C15.5000957,0.272911257 16.2944005,0.06230013 17.0696824,0.06230013 C17.8256502,0.06230013 18.2850154,0.205942742 18.7922291,0.368608294 L18.8400776,0.445185335 C18.8018376,0.808853488 18.7922291,0.942790517 18.7635006,1.28733867 L18.6869235,1.32557867 C18.2754068,1.1150646 17.8256502,0.885430528 17.1078253,0.885430528 C16.3136176,0.885430528 15.8159153,1.25861015 15.8159153,1.82318385 C15.8159153,2.25391757 16.1031035,2.45482312 16.3040091,2.57934573 C16.4284346,2.65582572 16.4666746,2.67504277 17.0409539,2.92379683 L17.0409539,2.92379683 Z M15.1977668,6.08199317 C13.9248798,6.12023317 13.6377887,6.12984169 12.5755127,6.12984169 C12.5660013,5.67998797 12.5563927,5.2875913 12.5563927,4.55074352 C12.5563927,4.3210124 12.5563927,2.02428351 12.6520898,0.234671264 L12.5947298,0.177214219 C12.106539,0.196334216 12.010842,0.196334216 11.4941168,0.205942742 L11.4270512,0.272911257 C11.4749968,1.03858461 11.5036283,1.85200943 11.5036283,3.32580203 C11.5036283,5.00059724 11.4749968,6.14896169 11.4557797,6.92404946 L11.5132368,6.99266792 C13.3124576,6.96238651 13.4559061,6.96238651 15.1594298,6.96238651 L15.2072783,6.89532093 C15.2264954,6.6179354 15.2264954,6.47429279 15.2552239,6.15847316 L15.1977668,6.08199317 Z M8.23459418,6.30211577 C9.64132121,6.31162724 10.1963834,5.01962018 10.1963834,3.56504463 C10.1963834,3.210985 10.148632,2.27313462 9.78496382,1.67973535 C9.28726159,0.866213476 8.47383677,0.856702006 8.24410565,0.856702006 C7.36371232,0.856702006 6.90425007,1.34479572 6.70334452,1.67012682 C6.33967637,2.23470052 6.27270786,3.1343109 6.27270786,3.56504463 C6.27270786,4.02431276 6.33967637,4.83783463 6.66500748,5.40250539 C6.99053269,5.95756761 7.52637787,6.30211577 8.23459418,6.30211577 L8.23459418,6.30211577 Z M8.21547418,7.10748495 C6.23446786,7.09797348 5.11463783,5.75656501 5.11463783,3.63201314 C5.11463783,1.48834127 6.26309933,0.06230013 8.24410565,0.06230013 C10.1389264,0.06230013 11.3352364,1.39264424 11.3352364,3.61289315 C11.3352364,5.90020763 10.1006864,7.10748495 8.21547418,7.10748495 L8.21547418,7.10748495 Z M1.45320707,0.97151904 C1.74980965,0.952399043 2.04660634,0.942790517 2.3527204,0.942790517 C2.57284299,0.942790517 3.16624227,0.942790517 3.5011819,1.26812162 C3.66384745,1.4403957 3.76915301,1.68924682 3.76915301,1.94760941 C3.76915301,2.26342904 3.61599893,2.57934573 3.37675634,2.78025128 C2.97484819,3.09607091 2.3144804,3.10567944 1.45320707,3.09607091 L1.45320707,0.97151904 Z M1.68284113,3.89047279 C2.19966337,3.87125574 2.28575188,3.87125574 2.37184039,3.87125574 C2.83130264,3.87125574 4.06585265,3.88086426 4.06585265,5.00059724 C4.06585265,5.47908243 3.80749006,5.88099057 3.34802782,6.05326465 C2.97484819,6.20632168 2.39105744,6.19681021 1.67332966,6.19681021 L1.49144706,6.19681021 C1.45320707,5.15365427 1.45320707,4.99089166 1.45320707,3.89998426 L1.68284113,3.89047279 Z M2.10386928,6.98315645 C2.86003116,6.98315645 3.36714781,6.98315645 3.87445858,6.79972095 C4.63993782,6.52214131 5.18548858,5.90020763 5.18548858,5.01962018 C5.18548858,4.66556056 5.09940007,3.93822425 4.27636672,3.5745561 C3.93181857,3.42149907 3.61599893,3.41189055 3.39587634,3.40237907 C4.72612339,3.07695091 4.82182042,2.11998054 4.82182042,1.78494386 C4.82182042,1.07672755 4.41991228,0.674916458 4.06585265,0.473816801 C3.58727041,0.196334216 2.98435966,0.177214219 2.41978597,0.177214219 C2.16132632,0.177214219 1.86472374,0.177214219 1.67332966,0.186822745 L0.390834076,0.205942742 L0.343082614,0.272911257 C0.381322606,0.770516439 0.410051128,1.28733867 0.410051128,2.29215756 C0.410051128,2.74201128 0.400442602,4.7421376 0.400442602,5.15365427 C0.400442602,6.02453613 0.390834076,6.46478132 0.371811136,6.92404946 L0.419562599,6.99266792 L2.10386928,6.98315645 Z" id="Fill-6"></path>
                <path d="M35.7596632,10.7852793 C35.1591788,10.5250727 35.1191918,10.5050792 34.989137,10.4250081 C34.7788171,10.2949533 34.4786234,10.0847304 34.4786234,9.63439143 C34.4786234,9.04390383 34.9991338,8.65354532 35.8297375,8.65354532 C36.5804642,8.65354532 37.0507967,8.89375847 37.4811422,9.11397813 L37.5612133,9.07399113 C37.5912035,8.71362288 37.6012003,8.57347427 37.6411873,8.19311252 L37.5912035,8.11313853 C37.0607935,7.94290262 36.5804642,7.79285432 35.7897505,7.79285432 C34.9790432,7.79285432 34.1483425,8.01307398 33.6880067,8.67363588 C33.4777838,8.97382953 33.3777193,9.35409422 33.3777193,9.72445923 C33.3777193,10.9454214 34.3284781,11.3757669 35.0391208,11.7060479 L35.5394435,11.9262675 C36.1901057,12.1764774 36.7704995,12.4466808 36.7704995,13.1472297 C36.7704995,13.7477141 36.340154,14.2782212 35.3093242,14.2782212 C34.3785589,14.2782212 33.798068,13.8578724 33.5478581,13.6877336 L33.4477936,13.7277206 C33.4178033,14.1080823 33.4078066,14.2982147 33.3677225,14.6485862 L33.4078066,14.7186605 C33.6479227,14.8387185 34.3284781,15.1606527 35.3893952,15.1606527 C37.1308678,15.1606527 37.9614715,14.1480693 37.9614715,13.0272687 C37.9614715,11.7461319 36.9907192,11.3257832 36.26018,11.005596 L35.7596632,10.7852793 Z M32.8273157,14.1181761 C31.5362792,14.1680628 31.2259918,14.1680628 29.7146386,14.1680628 C29.7047389,13.2174011 29.6947421,12.9371039 29.7146386,11.7761222 C31.0758464,11.7761222 31.3260563,11.7761222 32.487038,11.8062095 L32.5471156,11.7361352 C32.5571123,11.415851 32.5571123,11.3157864 32.5970993,10.9654149 L32.5471156,10.8953406 C31.3260563,10.9154312 30.9456946,10.9254279 29.7146386,10.9154312 C29.7146386,9.99466263 29.7146386,9.70446573 29.7447259,8.78360012 C31.0158659,8.79359687 31.4462114,8.79359687 32.7372479,8.83368092 L32.7973255,8.76360662 C32.817319,8.40333542 32.8373125,8.28327738 32.8673998,7.98298667 L32.8073222,7.91291237 C30.9657851,7.93300293 30.5754266,7.93300293 28.6038347,7.94290262 L28.5437572,8.01307398 C28.6138315,9.16396187 28.6138315,10.1248145 28.6138315,11.8062095 C28.6138315,13.6377498 28.5837442,14.1781566 28.5537539,14.9687733 L28.6038347,15.0405946 C30.5053523,15.0206011 30.8156398,15.0088574 32.7673352,15.0088574 L32.8373125,14.9387831 C32.857306,14.5985054 32.857306,14.5284311 32.8872962,14.1882504 L32.8273157,14.1181761 Z M23.8698401,11.1856346 C23.8598434,10.0747337 23.8598434,9.91468863 23.8698401,8.75360987 C24.2101178,8.74351607 24.3902534,8.74351607 24.5205023,8.74351607 C25.271035,8.74351607 25.8114418,8.77360337 26.131823,9.26402642 C26.2718746,9.49433988 26.3219554,9.74445273 26.3219554,9.95457857 C26.3219554,10.2749598 26.1918035,10.5851502 25.9415936,10.7952761 C25.4611673,11.2157219 24.6305636,11.1957284 23.8698401,11.1856346 L23.8698401,11.1856346 Z M23.960005,14.9287863 C23.8999274,14.0912917 23.8899307,12.5551892 23.8899307,12.0063386 C24.2402051,12.0163353 24.3001856,12.0063386 24.6104731,11.9963418 C24.8506862,12.314879 24.9107638,12.4150406 25.5112481,13.3225125 C25.8315323,13.8111886 26.171713,14.2898679 26.462104,14.7987315 C26.502091,14.8687088 26.542175,14.9387831 26.582065,15.0088574 L26.6522363,15.0605881 C26.8623622,15.0405946 27.0725851,15.0305008 27.282808,15.0206011 C27.48284,15.0088574 27.69316,15.0088574 27.893192,15.0088574 L27.9332761,14.9086958 C27.3127982,14.0912917 27.1726496,13.8912596 26.8623622,13.4524703 C26.6822266,13.1939136 25.9016066,12.0564194 25.7314678,11.826203 C27.0125075,11.4759285 27.442853,10.6652213 27.442853,9.86460783 C27.442853,8.90375522 26.952527,8.35325462 26.1817097,8.09304797 C25.6914808,7.92290912 25.1609737,7.92290912 24.6104731,7.92290912 L23.999992,7.93300293 C23.6597143,7.93300293 23.1692912,7.94290262 22.9890586,7.94290262 L22.7389457,7.94290262 L22.6788682,8.01307398 C22.7389457,9.01391358 22.7789327,9.80453028 22.7789327,12.0464226 C22.7789327,13.013875 22.768936,13.9913242 22.7389457,14.9587766 L22.7990233,15.0305008 C23.3194366,14.9988606 23.3294333,14.9988606 23.8999274,14.9988606 L23.960005,14.9287863 Z M18.8156584,14.3182082 C20.2869275,14.328302 20.8673213,12.9771879 20.8673213,11.455935 C20.8673213,11.08557 20.8173376,10.1047239 20.4369758,9.48424608 C19.9165625,8.63355183 19.0658683,8.62355508 18.8256551,8.62355508 C17.9048866,8.62355508 17.4244602,9.13397163 17.2143344,9.47424933 C16.8339726,10.0647369 16.7639954,11.005596 16.7639954,11.455935 C16.7639954,11.9362643 16.8339726,12.7869585 17.1743474,13.3775432 C17.514528,13.957937 18.0750254,14.3182082 18.8156584,14.3182082 L18.8156584,14.3182082 Z M18.7956649,15.1606527 C16.7239113,15.150753 15.5529329,13.7477141 15.5529329,11.5259123 C15.5529329,9.28411698 16.7539987,7.79285432 18.8256551,7.79285432 C20.8073408,7.79285432 22.0583903,9.18395537 22.0583903,11.5059188 C22.0583903,13.8979565 20.7672568,15.1606527 18.7956649,15.1606527 L18.7956649,15.1606527 Z M15.7330685,14.0880888 C14.4019479,14.1280758 14.1016572,14.1381696 12.9907563,14.1381696 C12.9807596,13.6677401 12.9707628,13.2573881 12.9707628,12.4866678 C12.9707628,12.2465517 12.9707628,9.84461433 13.0708274,7.97298992 L13.0108469,7.91291237 C12.5003333,7.93300293 12.4003658,7.93300293 11.8598619,7.94290262 L11.7897876,8.01307398 C11.8398684,8.81368742 11.8698587,9.66438168 11.8698587,11.2056281 C11.8698587,12.9571944 11.8398684,14.1581631 11.8197779,14.9687733 L11.8798554,15.0405946 C13.7613795,15.0088574 13.9115249,15.0088574 15.6930815,15.0088574 L15.7430652,14.9387831 C15.7631558,14.6485862 15.7631558,14.4984408 15.793049,14.1680628 L15.7330685,14.0880888 Z M8.04663588,8.66354207 L6.99571547,12.0464226 C7.31599967,12.0464226 7.63628388,12.0564194 7.95666513,12.0564194 C8.29694283,12.0564194 8.65711698,12.0464226 9.00748848,12.0464226 L8.04663588,8.66354207 Z M8.92741743,7.97298992 L8.97740118,8.15312552 C9.30768213,9.25402967 9.68804388,10.4950824 9.98833459,11.4459383 C10.298622,12.4066938 10.7989448,13.9479402 11.0992355,14.9086958 L11.0591514,14.9888639 C10.5387381,14.9988606 10.3186155,15.0088574 9.89826679,15.0305008 L9.82819249,14.9587766 C9.57798259,14.0181116 9.49791154,13.7477141 9.23760783,12.8470361 C8.83725258,12.8470361 8.44689407,12.8370393 8.04663588,12.8370393 C7.60629363,12.8370393 7.14595788,12.8470361 6.74560263,12.8470361 C6.45530867,13.7828483 6.39532818,14.0229644 6.15511503,14.9086958 L6.08504073,14.9788671 C5.65459817,14.9788671 5.55463068,14.9788671 5.05411382,15.0088574 L5.01247687,14.9387831 C5.04411707,14.8287218 5.08420112,14.7303072 5.12428518,14.6301456 C5.50454987,13.5542818 5.87481782,12.4767681 6.23518608,11.3958575 C6.83567043,9.62439468 7.05579302,8.97382953 7.34608698,8.01307398 L7.42615803,7.94290262 C8.12670693,7.93300293 8.21677473,7.93300293 8.85724608,7.90301268 L8.92741743,7.97298992 Z M3.67310658,14.9387831 C3.71309357,14.7987315 3.75317763,14.6685797 3.79316462,14.5385249 C4.08336152,13.5276885 4.42363922,12.5267519 4.74392342,11.5259123 C4.91415933,10.9654149 5.68478253,8.48340647 5.84482757,7.98298667 L5.79484383,7.91291237 C5.32441428,7.94290262 5.27443053,7.94290262 4.79400423,7.94290262 L4.73392667,8.01307398 C4.45372653,9.06389733 4.16352963,10.1147207 3.87313862,11.1556443 L2.98245737,14.2982147 L2.11167256,11.1455505 C1.51118821,8.92374872 1.45111066,8.67363588 1.27107212,7.98298667 L1.20099782,7.91291237 C0.70048096,7.93300293 0.610510216,7.94290262 0.0500128634,7.94290262 L2.91167456e-05,8.01307398 C0.0500128634,8.18311577 0.930794418,11.0255895 1.10083621,11.5959866 C1.44111391,12.7169813 1.77149192,13.8479727 2.09177612,14.9687733 L2.16185042,15.0405946 C2.88239282,15.0206011 2.93247362,15.0088574 3.61302902,15.0088574 L3.67310658,14.9387831 Z" id="Fill-8"></path>
                <path d="M33.4207053,19.8168765 L33.6779032,18.8175898 C33.8955024,18.0262937 33.9549005,17.7986978 34.0735998,17.2744022 L34.4000956,18.7681884 L34.6473938,19.8168765 L33.4207053,19.8168765 Z M34.9836922,21.2413647 L35.3597835,22.923245 L35.4288872,22.9742964 C35.7751824,22.9643967 36.1114808,22.9429473 36.4478763,22.9429473 L37.4668653,22.9429473 L37.5360661,22.8638468 L35.5278842,15.9784159 L35.4586834,15.9289174 L32.9458112,15.9586165 L32.8865101,16.008115 L30.7298327,22.8737465 L30.7793312,22.9429473 L32.5996131,22.9429473 L32.6688139,22.9034456 L33.0547078,21.2413647 L34.9836922,21.2413647 Z M25.4074857,15.9586165 L25.3480876,15.9289174 C24.8830932,15.9389142 24.4181958,15.9488139 23.9433017,15.9586165 L22.6078136,15.9586165 L22.5484154,16.008115 C22.4594153,19.3023836 22.4198165,20.1432752 22.2220167,22.9132483 L22.2714181,22.9742964 L23.9235023,22.9429473 L23.9927031,22.8836462 C23.9829004,22.3592536 23.9730007,21.9437577 23.9730007,21.4293618 C23.9730007,20.5884702 23.9927031,19.7475786 24.0125995,18.906687 L24.0521983,17.5019011 L24.5170957,19.2133834 L24.6753937,19.7970771 C24.9919898,20.9841668 25.0908897,21.3699637 25.4865862,22.9132483 L25.5558841,22.9742964 C26.2681767,22.9330476 26.4461771,22.9330476 27.0991687,22.9429473 L27.1782692,22.8836462 L28.0785589,19.5101801 L28.236857,18.906687 L28.6027574,17.5612992 L28.6027574,19.0452827 L28.681955,22.9132483 L28.7314534,22.9742964 C29.572345,22.9429473 29.859242,22.9330476 30.6704346,22.9429473 L30.7297357,22.8836462 C30.6704346,21.7063592 30.6011367,20.5291691 30.5418356,19.351882 C30.4528354,17.7096976 30.432939,17.1854021 30.403337,15.9883156 L30.3439388,15.9289174 L27.6629659,15.9586165 L27.5937651,15.9982153 C27.4948652,16.4236109 27.3860657,16.8490066 27.277169,17.2744022 C27.089269,17.9767952 26.8814725,18.6790911 26.7034721,19.3815811 C26.6341742,19.6584814 26.5747761,19.925579 26.5055753,20.1927737 L25.4074857,15.9586165 Z M21.7076209,22.8934489 C21.6680221,21.5084623 21.6384201,20.0938738 21.6384201,18.6989876 C21.6384201,17.5612992 21.6581224,16.9678029 21.6878215,15.9784159 L21.6482227,15.9289174 C20.6787321,15.9686133 20.4709356,15.9686133 19.5014451,15.9586165 L19.4520437,16.008115 C19.4915454,17.0666057 19.5114418,17.7096976 19.5114418,18.5802883 C19.5114418,19.1440855 19.5014451,19.7079798 19.4915454,20.2718742 C19.4816457,21.1523645 19.471843,22.0328549 19.471843,22.923245 L19.5114418,22.9742964 C20.4908321,22.9330476 20.7281336,22.9330476 21.6680221,22.9429473 L21.7076209,22.8934489 Z M16.6918732,15.9289174 L14.564992,15.9488139 L14.5055939,15.9982153 C14.5351959,17.0073046 14.5351959,17.2150041 14.5351959,19.1243832 C14.5451926,19.9651778 14.5550923,20.8060694 14.5550923,21.646961 C14.5550923,22.0228582 14.5550923,22.2603538 14.5451926,22.9132483 L14.594594,22.9742964 C16.3653774,22.9330476 16.9094724,22.923245 19.026648,22.9429473 L19.0760494,22.8836462 L19.1749493,21.3997598 L19.1255479,21.3403617 C18.1263582,21.3798634 17.8987623,21.3897631 16.6721709,21.3997598 C16.6820706,20.4400719 16.6918732,17.5513996 16.7215723,16.7204076 C16.731472,16.4731094 16.7512714,16.2158144 16.7611711,15.9686133 L16.6918732,15.9289174 Z M10.6671333,22.062457 C9.39094632,22.1119554 9.08424993,22.1119554 7.59046382,22.1119554 C7.58066119,21.1721639 7.57076149,20.8951666 7.59046382,19.7475786 C8.93594864,19.7475786 9.18314981,19.7475786 10.3307378,19.7772777 L10.390136,19.7079798 C10.4000357,19.3913838 10.4000357,19.2925809 10.4396344,18.9461887 L10.390136,18.8769879 C9.18314981,18.8967873 8.80734968,18.906687 7.59046382,18.8967873 C7.59046382,17.986792 7.59046382,17.6997979 7.62016291,16.7897055 C8.87655048,16.7995081 9.30194613,16.7995081 10.5781331,16.8391069 L10.6374342,16.769712 C10.6572336,16.4138083 10.677033,16.295012 10.7067321,15.9982153 L10.6473339,15.9289174 C8.82714907,15.9488139 8.44125513,15.9488139 6.49237429,15.9586165 L6.43307319,16.0279144 C6.50227399,17.1656027 6.50227399,18.1152939 6.50227399,19.7772777 C6.50227399,21.5875628 6.4725749,22.1218551 6.44297288,22.9034456 L6.49237429,22.9742964 C8.37205433,22.954497 8.67875072,22.9429473 10.6078322,22.9429473 L10.677033,22.8737465 C10.6968324,22.5373511 10.6968324,22.4680532 10.7265314,22.1317548 L10.6671333,22.062457 Z M1.60541971,22.1317548 C1.58552327,21.231465 1.57562357,21.0138659 1.57562357,19.2034837 C1.57562357,17.7196943 1.58552327,17.3634024 1.60541971,16.740207 C1.94171812,16.7302103 2.21871543,16.7204076 2.56491353,16.7204076 C2.95071041,16.7204076 3.75210031,16.7204076 4.335794,17.2150041 C5.05798635,17.8381995 5.05798635,18.8671853 5.05798635,19.193584 C5.05798635,19.737776 4.98868849,20.2224727 4.82049076,20.6577681 C4.21699768,22.1713536 2.93100808,22.1515542 1.60541971,22.1317548 L1.60541971,22.1317548 Z M1.17012436,22.9643967 C2.48581304,22.9643967 2.63421139,22.9643967 3.02000827,22.923245 C4.02909761,22.8242481 5.33498365,22.4878526 5.94827937,20.8852669 C6.14607913,20.3708711 6.21537699,19.8267762 6.21537699,19.2727816 C6.21537699,18.8571885 6.21537699,17.2546029 4.91939064,16.4236109 C4.09829841,15.8993154 3.07930937,15.909118 1.92191873,15.9289174 L0.467634346,15.9586165 L0.40833324,16.0279144 C0.457831708,16.769712 0.497333426,17.5810986 0.497333426,20.341075 C0.497333426,21.360064 0.487530789,22.1020557 0.457831708,22.9034456 L0.50723312,22.9742964 L1.17012436,22.9643967 Z" id="Fill-10"></path>
            </g>
        </g>
    </g>
</svg>